# xmcd
#
# Track frame offsets: 
#        150
#        10085
#        27417
#        49045
#        66404
#        81074
#        93576
#        109550
#        120966
#        133422
#        147467
#
# Disc length: 2148 seconds
#
# Revision: 0
# Processed by: cddbd v1.5.2PL0 Copyright (c) Steve Scherf et al.
# Submitted via: ExactAudioCopy v1.0b1
#
DISCID=9408620b
DTITLE=Willie Nelson - Willie Nelson - The Box Set Series - CD4
DYEAR=1900
DGENRE=Country
TTITLE0=I Gotta Get Drunk - with George Jones
TTITLE1=Faded Love - with Ray Price
TTITLE2=Poncho and Lefty - with Merle Haggard
TTITLE3=Seven Spanish Angels - with Ray Charles
TTITLE4=Everything's Beautiful (In Its Own Way) - with Dolly Parton
TTITLE5=How Do You Feel About Foolin' Around - with Kris Kristofferson
TTITLE6=Reasons To Quit - with Merle Haggard
TTITLE7=Hello Walls - with Faron Young
TTITLE8=I'm Movin' On - with Hank Snow
TTITLE9=Old Friends - with Roger Miller and Ray Price
TTITLE10=Highwayman - with Waylon Jennings, Johnny Cash and Kris Krist
TTITLE10=offerson
EXTD=
EXTT0=
EXTT1=
EXTT2=
EXTT3=
EXTT4=
EXTT5=
EXTT6=
EXTT7=
EXTT8=
EXTT9=
EXTT10=
PLAYORDER=
